<svg width="13" height="15" viewBox="0 0 13 15" fill="none" xmlns="http://www.w3.org/2000/svg">
<path d="M0 13.4375C0 13.8021 0.127604 14.112 0.382812 14.3672C0.638021 14.6224 0.947917 14.75 1.3125 14.75H10.9375C11.3021 14.75 11.612 14.6224 11.8672 14.3672C12.1224 14.112 12.25 13.8021 12.25 13.4375V6H0V13.4375ZM8.75 8.07812C8.75 7.98698 8.77734 7.91406 8.83203 7.85938C8.90495 7.78646 8.98698 7.75 9.07812 7.75H10.1719C10.263 7.75 10.3359 7.78646 10.3906 7.85938C10.4635 7.91406 10.5 7.98698 10.5 8.07812V9.17188C10.5 9.26302 10.4635 9.34505 10.3906 9.41797C10.3359 9.47266 10.263 9.5 10.1719 9.5H9.07812C8.98698 9.5 8.90495 9.47266 8.83203 9.41797C8.77734 9.34505 8.75 9.26302 8.75 9.17188V8.07812ZM8.75 11.5781C8.75 11.487 8.77734 11.4141 8.83203 11.3594C8.90495 11.2865 8.98698 11.25 9.07812 11.25H10.1719C10.263 11.25 10.3359 11.2865 10.3906 11.3594C10.4635 11.4141 10.5 11.487 10.5 11.5781V12.6719C10.5 12.763 10.4635 12.8451 10.3906 12.918C10.3359 12.9727 10.263 13 10.1719 13H9.07812C8.98698 13 8.90495 12.9727 8.83203 12.918C8.77734 12.8451 8.75 12.763 8.75 12.6719V11.5781ZM5.25 8.07812C5.25 7.98698 5.27734 7.91406 5.33203 7.85938C5.40495 7.78646 5.48698 7.75 5.57812 7.75H6.67188C6.76302 7.75 6.83594 7.78646 6.89062 7.85938C6.96354 7.91406 7 7.98698 7 8.07812V9.17188C7 9.26302 6.96354 9.34505 6.89062 9.41797C6.83594 9.47266 6.76302 9.5 6.67188 9.5H5.57812C5.48698 9.5 5.40495 9.47266 5.33203 9.41797C5.27734 9.34505 5.25 9.26302 5.25 9.17188V8.07812ZM5.25 11.5781C5.25 11.487 5.27734 11.4141 5.33203 11.3594C5.40495 11.2865 5.48698 11.25 5.57812 11.25H6.67188C6.76302 11.25 6.83594 11.2865 6.89062 11.3594C6.96354 11.4141 7 11.487 7 11.5781V12.6719C7 12.763 6.96354 12.8451 6.89062 12.918C6.83594 12.9727 6.76302 13 6.67188 13H5.57812C5.48698 13 5.40495 12.9727 5.33203 12.918C5.27734 12.8451 5.25 12.763 5.25 12.6719V11.5781ZM1.75 8.07812C1.75 7.98698 1.77734 7.91406 1.83203 7.85938C1.90495 7.78646 1.98698 7.75 2.07812 7.75H3.17188C3.26302 7.75 3.33594 7.78646 3.39062 7.85938C3.46354 7.91406 3.5 7.98698 3.5 8.07812V9.17188C3.5 9.26302 3.46354 9.34505 3.39062 9.41797C3.33594 9.47266 3.26302 9.5 3.17188 9.5H2.07812C1.98698 9.5 1.90495 9.47266 1.83203 9.41797C1.77734 9.34505 1.75 9.26302 1.75 9.17188V8.07812ZM1.75 11.5781C1.75 11.487 1.77734 11.4141 1.83203 11.3594C1.90495 11.2865 1.98698 11.25 2.07812 11.25H3.17188C3.26302 11.25 3.33594 11.2865 3.39062 11.3594C3.46354 11.4141 3.5 11.487 3.5 11.5781V12.6719C3.5 12.763 3.46354 12.8451 3.39062 12.918C3.33594 12.9727 3.26302 13 3.17188 13H2.07812C1.98698 13 1.90495 12.9727 1.83203 12.918C1.77734 12.8451 1.75 12.763 1.75 12.6719V11.5781ZM10.9375 2.5H9.625V1.1875C9.625 1.0599 9.57943 0.959635 9.48828 0.886719C9.41536 0.795573 9.3151 0.75 9.1875 0.75H8.3125C8.1849 0.75 8.07552 0.795573 7.98438 0.886719C7.91146 0.959635 7.875 1.0599 7.875 1.1875V2.5H4.375V1.1875C4.375 1.0599 4.32943 0.959635 4.23828 0.886719C4.16536 0.795573 4.0651 0.75 3.9375 0.75H3.0625C2.9349 0.75 2.82552 0.795573 2.73438 0.886719C2.66146 0.959635 2.625 1.0599 2.625 1.1875V2.5H1.3125C0.947917 2.5 0.638021 2.6276 0.382812 2.88281C0.127604 3.13802 0 3.44792 0 3.8125V5.125H12.25V3.8125C12.25 3.44792 12.1224 3.13802 11.8672 2.88281C11.612 2.6276 11.3021 2.5 10.9375 2.5Z" fill="white"/>
</svg>
