<svg width="13" height="15" viewBox="0 0 13 15" fill="none" xmlns="http://www.w3.org/2000/svg">
<path d="M6.125 7.75C6.76302 7.75 7.34635 7.59505 7.875 7.28516C8.42188 6.97526 8.85026 6.55599 9.16016 6.02734C9.47005 5.48047 9.625 4.88802 9.625 4.25C9.625 3.61198 9.47005 3.02865 9.16016 2.5C8.85026 1.95312 8.42188 1.52474 7.875 1.21484C7.34635 0.904948 6.76302 0.75 6.125 0.75C5.48698 0.75 4.89453 0.904948 4.34766 1.21484C3.81901 1.52474 3.39974 1.95312 3.08984 2.5C2.77995 3.02865 2.625 3.61198 2.625 4.25C2.625 4.88802 2.77995 5.48047 3.08984 6.02734C3.39974 6.55599 3.81901 6.97526 4.34766 7.28516C4.89453 7.59505 5.48698 7.75 6.125 7.75ZM8.58594 8.625H8.12109C7.48307 8.91667 6.81771 9.0625 6.125 9.0625C5.43229 9.0625 4.76693 8.91667 4.12891 8.625H3.66406C3.00781 8.625 2.39714 8.78906 1.83203 9.11719C1.26693 9.44531 0.820312 9.89193 0.492188 10.457C0.164062 11.0221 0 11.6328 0 12.2891V13.4375C0 13.8021 0.127604 14.112 0.382812 14.3672C0.638021 14.6224 0.947917 14.75 1.3125 14.75H10.9375C11.3021 14.75 11.612 14.6224 11.8672 14.3672C12.1224 14.112 12.25 13.8021 12.25 13.4375V12.2891C12.25 11.6328 12.0859 11.0221 11.7578 10.457C11.4297 9.89193 10.9831 9.44531 10.418 9.11719C9.85286 8.78906 9.24219 8.625 8.58594 8.625Z" fill="white"/>
</svg>
