<svg width="14" height="15" viewBox="0 0 14 15" fill="none" xmlns="http://www.w3.org/2000/svg">
<path d="M12.168 8.70703L13.3164 9.39062C13.3893 9.42708 13.4349 9.48177 13.4531 9.55469C13.4896 9.6276 13.4987 9.70052 13.4805 9.77344C13.1706 10.7396 12.6693 11.5964 11.9766 12.3438C11.9219 12.3984 11.8581 12.4349 11.7852 12.4531C11.7122 12.4714 11.6393 12.4622 11.5664 12.4258L10.418 11.7422C9.92578 12.1615 9.36979 12.4805 8.75 12.6992V14.0391C8.75 14.112 8.72266 14.1758 8.66797 14.2305C8.63151 14.3034 8.57682 14.349 8.50391 14.3672C7.5013 14.5859 6.4987 14.5859 5.49609 14.3672C5.42318 14.349 5.35938 14.3034 5.30469 14.2305C5.26823 14.1758 5.25 14.112 5.25 14.0391V12.6992C4.63021 12.4805 4.07422 12.1615 3.58203 11.7422L2.43359 12.4258C2.36068 12.4622 2.28776 12.4714 2.21484 12.4531C2.14193 12.4349 2.07812 12.3984 2.02344 12.3438C1.33073 11.5964 0.829427 10.7396 0.519531 9.77344C0.501302 9.70052 0.501302 9.6276 0.519531 9.55469C0.55599 9.48177 0.610677 9.42708 0.683594 9.39062L1.83203 8.70703C1.72266 8.06901 1.72266 7.43099 1.83203 6.79297L0.683594 6.10938C0.610677 6.07292 0.55599 6.01823 0.519531 5.94531C0.501302 5.8724 0.501302 5.79948 0.519531 5.72656C0.829427 4.76042 1.33073 3.90365 2.02344 3.15625C2.07812 3.10156 2.14193 3.0651 2.21484 3.04688C2.28776 3.02865 2.36068 3.03776 2.43359 3.07422L3.58203 3.75781C4.07422 3.33854 4.63021 3.01953 5.25 2.80078V1.46094C5.25 1.38802 5.26823 1.32422 5.30469 1.26953C5.35938 1.19661 5.42318 1.15104 5.49609 1.13281C6.4987 0.914062 7.5013 0.914062 8.50391 1.13281C8.57682 1.15104 8.63151 1.19661 8.66797 1.26953C8.72266 1.32422 8.75 1.38802 8.75 1.46094V2.80078C9.36979 3.01953 9.92578 3.33854 10.418 3.75781L11.5664 3.07422C11.6393 3.03776 11.7122 3.02865 11.7852 3.04688C11.8581 3.0651 11.9219 3.10156 11.9766 3.15625C12.6693 3.90365 13.1706 4.76042 13.4805 5.72656C13.4987 5.79948 13.4896 5.8724 13.4531 5.94531C13.4349 6.01823 13.3893 6.07292 13.3164 6.10938L12.168 6.79297C12.2773 7.43099 12.2773 8.06901 12.168 8.70703ZM9.1875 7.75C9.1875 7.14844 8.96875 6.63802 8.53125 6.21875C8.11198 5.78125 7.60156 5.5625 7 5.5625C6.39844 5.5625 5.87891 5.78125 5.44141 6.21875C5.02214 6.63802 4.8125 7.14844 4.8125 7.75C4.8125 8.35156 5.02214 8.87109 5.44141 9.30859C5.87891 9.72786 6.39844 9.9375 7 9.9375C7.60156 9.9375 8.11198 9.72786 8.53125 9.30859C8.96875 8.87109 9.1875 8.35156 9.1875 7.75Z" fill="white"/>
</svg>
